<?xml version="1.0" encoding="UTF-8"?>
<svg id="Calque_2" data-name="Calque 2" xmlns="http://www.w3.org/2000/svg" viewBox="0 0 73.33 73.33">
  <defs>
    <style>
      .cls-1 {
        fill: #ffffff;
        stroke-width: 0px;
      }
    </style>
  </defs>
  <g id="Calque_1-2" data-name="Calque 1">
    <path class="cls-1" d="M6.67,0C2.98,0,0,2.98,0,6.67v60c0,3.68,2.98,6.67,6.67,6.67h60c3.68,0,6.67-2.98,6.67-6.67V6.67c0-3.68-2.98-6.67-6.67-6.67H6.67ZM21.38,20.42h6.61l11.69,32.88h-6.31l-2.78-8.41h-12.1l-2.83,8.41h-5.94l11.67-32.88ZM24.36,26.69l-4.51,13.55h9.37l-4.47-13.55h-.39ZM53.85,27.88c7.11,0,11.37,4.71,11.37,12.58v1.82h-17.41v.29c.14,4.15,2.53,6.74,6.24,6.74,2.8,0,4.74-1.02,5.56-2.87h5.35c-1.07,4.54-5.2,7.36-11.07,7.36-7.34,0-11.76-4.86-11.76-12.88s4.49-13.05,11.71-13.05ZM53.83,32.36c-3.37,0-5.74,2.42-6,6.06h11.74c-.12-3.69-2.35-6.06-5.74-6.06Z"/>
  </g>
</svg>