<?xml version="1.0" encoding="UTF-8"?>
<svg id="Calque_1" xmlns="http://www.w3.org/2000/svg" viewBox="0 0 194.56 186.82">
  <defs>
    <style>
      .cls-1 {
        fill: #fca326;
      }

      .cls-2 {
        fill: #fc6d26;
      }

      .cls-3 {
        fill: #e24329;
      }
    </style>
  </defs>
  <g id="LOGO">
    <path class="cls-3" d="M190.11,74.13l-.27-.69L163.7,5.22c-.53-1.34-1.47-2.47-2.69-3.24-2.49-1.55-5.69-1.38-8,.43-1.12.91-1.93,2.14-2.32,3.52l-17.65,54H61.57L43.92,5.93c-.38-1.39-1.19-2.63-2.32-3.53-2.31-1.81-5.51-1.98-8-.43-1.21.77-2.15,1.91-2.69,3.24L4.72,73.4l-.26.69c-7.73,20.2-1.17,43.07,16.1,56.1l.09.07.24.17,39.82,29.82,19.7,14.91,12,9.06c2.88,2.19,6.88,2.19,9.76,0l12-9.06,19.7-14.91,40.06-30,.1-.08c17.22-13.03,23.78-35.86,16.08-56.04Z"/>
    <path class="cls-2" d="M190.11,74.13l-.27-.69c-12.74,2.61-24.74,8.01-35.15,15.8l-57.41,43.41c19.55,14.79,36.57,27.64,36.57,27.64l40.06-30,.1-.08c17.25-13.03,23.81-35.89,16.1-56.08Z"/>
    <path class="cls-1" d="M60.71,160.29l19.7,14.91,12,9.06c2.88,2.19,6.88,2.19,9.76,0l12-9.06,19.7-14.91s-17.04-12.89-36.59-27.64c-19.55,14.75-36.57,27.64-36.57,27.64Z"/>
    <path class="cls-2" d="M39.86,89.24c-10.4-7.81-22.4-13.22-35.14-15.84l-.26.69c-7.73,20.2-1.17,43.07,16.1,56.1l.09.07.24.17,39.82,29.82s17-12.85,36.57-27.64l-57.42-43.37Z"/>
  </g>
</svg>