<?xml version="1.0" encoding="UTF-8"?>
<svg id="Calque_1" data-name="Calque 1" xmlns="http://www.w3.org/2000/svg" viewBox="0 0 16 16">
  <defs>
    <style>
      .cls-1 {
        fill: #479796;
      }
    </style>
  </defs>
  <path class="cls-1" d="M8,12c2.21,0,4-1.79,4-4s-1.79-4-4-4-4,1.79-4,4,1.79,4,4,4M8,0c.28,0,.5.22.5.5v2c0,.28-.22.5-.5.5s-.5-.22-.5-.5V.5c0-.28.22-.5.5-.5M8,13c.28,0,.5.22.5.5v2c0,.28-.22.5-.5.5s-.5-.22-.5-.5v-2c0-.28.22-.5.5-.5M16,8c0,.28-.22.5-.5.5h-2c-.28,0-.5-.22-.5-.5s.22-.5.5-.5h2c.28,0,.5.22.5.5M3,8c0,.28-.22.5-.5.5H.5c-.28,0-.5-.22-.5-.5s.22-.5.5-.5h2c.28,0,.5.22.5.5M13.66,2.34c.2.2.2.51,0,.71l-1.41,1.42c-.2.2-.51.2-.71,0-.2-.2-.2-.51,0-.71l1.41-1.41c.2-.2.51-.2.71,0M4.46,11.54c.2.2.2.51,0,.71l-1.41,1.41c-.2.19-.52.19-.71-.01-.19-.19-.19-.5,0-.69l1.41-1.41c.2-.2.51-.2.71,0M13.66,13.66c-.2.2-.51.2-.71,0l-1.41-1.41c-.19-.2-.19-.52.01-.71.19-.19.5-.19.69,0l1.41,1.41c.2.2.2.51,0,.71M4.46,4.47c-.2.2-.51.2-.71,0l-1.41-1.42c-.2-.19-.2-.51-.01-.71.19-.2.51-.2.71-.01,0,0,0,0,.01.01l1.41,1.41c.2.2.2.51,0,.71,0,0,0,0,0,0"/>
</svg>