<?xml version="1.0" encoding="UTF-8"?>
<svg id="Calque_2" data-name="Calque 2" xmlns="http://www.w3.org/2000/svg" xmlns:xlink="http://www.w3.org/1999/xlink" viewBox="0 0 105.76 105.19">
  <defs>
    <style>
      .cls-1, .cls-2 {
        fill: #fff;
      }

      .cls-1, .cls-2, .cls-3, .cls-4, .cls-5, .cls-6 {
        stroke-width: 0px;
      }

      .cls-1, .cls-5, .cls-6 {
        fill-rule: evenodd;
      }

      .cls-7 {
        opacity: .45;
      }

      .cls-7, .cls-2, .cls-3 {
        isolation: isolate;
      }

      .cls-2, .cls-3 {
        opacity: .99;
      }

      .cls-3, .cls-4 {
        fill: #fb7922;
      }

      .cls-5 {
        fill: url(#Dégradé_sans_nom);
      }

      .cls-6 {
        fill: #bb4803;
      }
    </style>
    <radialGradient id="Dégradé_sans_nom" data-name="Dégradé sans nom" cx="-247.59" cy="359.78" fx="-247.59" fy="359.78" r="82.92" gradientTransform="translate(424.83 590.6) scale(1.5 -1.49)" gradientUnits="userSpaceOnUse">
      <stop offset="0" stop-color="#f5660f"/>
      <stop offset=".5" stop-color="#f66e18" stop-opacity=".61"/>
      <stop offset="1" stop-color="#f77721" stop-opacity="0"/>
    </radialGradient>
  </defs>
  <g id="svg2">
    <g id="g24">
      <g id="g26">
        <g id="g3069">
          <path id="path28" class="cls-6" d="M12.83,0h80.1c7.11,0,12.83,4.2,12.83,9.41v86.37c0,5.21-5.72,9.41-12.83,9.41H12.83c-7.11,0-12.83-4.2-12.83-9.41V9.41C0,4.2,5.72,0,12.83,0Z"/>
          <g id="path30">
            <path class="cls-5" d="M16.52,4.94h72.29c6.41,0,11.58,3.79,11.58,8.49v77.95c0,4.7-5.16,8.49-11.58,8.49H16.52c-6.41,0-11.58-3.79-11.58-8.49V13.43c0-4.7,5.16-8.49,11.58-8.49Z"/>
          </g>
          <g id="path32" class="cls-7">
            <path class="cls-1" d="M10.28,6.2s81.44-.81,83.25-.2c1.81.6-4.03,7.46-10.88,8.06-6.85.6-58.45-.2-58.45-.2l-13.91-7.66h0Z"/>
          </g>
          <path id="path34" class="cls-1" d="M54.47,40.54c0,10.78-9.26,19.53-20.68,19.53s-20.68-8.74-20.68-19.53,9.26-19.53,20.68-19.53,20.68,8.74,20.68,19.53Z"/>
          <path id="path36" class="cls-1" d="M54.62,66.05c0,12.04-9.38,21.81-20.94,21.81s-20.94-9.76-20.94-21.81,9.38-21.81,20.94-21.81,20.94,9.76,20.94,21.81Z"/>
          <path id="path38" class="cls-1" d="M93.96,41.68c0,11.81-9.38,21.38-20.96,21.38s-20.96-9.57-20.96-21.38,9.38-21.38,20.96-21.38,20.96,9.57,20.96,21.38Z"/>
          <path id="path40" class="cls-1" d="M92.81,66.91c0,12.04-9.12,21.81-20.37,21.81s-20.37-9.76-20.37-21.81,9.12-21.81,20.37-21.81,20.37,9.76,20.37,21.81Z"/>
          <path id="path42" class="cls-2" d="M32.22,41.9h42.93v25.4h-42.93v-25.4Z"/>
          <path id="path44" class="cls-4" d="M73.29,34.3c-3.5.06-6.29,2.94-6.24,6.44,0,4.95-.71,5.99-1.23,6.42-.52.43-3.31,1.41-9.45,1.41s-12.34-.7-18.43,1.69c-3.05,1.2-6.08,3.59-7.87,6.84-1.78,3.26-2.43,7.01-2.43,11.34-.05,3.51,2.76,6.39,6.26,6.43s6.39-2.76,6.43-6.26c0-.06,0-.11,0-.17,0-3,.5-4.6.86-5.26.36-.66.47-.74,1.38-1.09,1.81-.71,7.04-.83,13.79-.83s12.78-.44,17.48-4.27c4.69-3.83,5.91-9.88,5.91-16.26.05-3.51-2.75-6.39-6.26-6.44-.06,0-.13,0-.19,0h0Z"/>
          <path id="path46" class="cls-4" d="M73.31,53.69c-3.5.06-6.29,2.94-6.24,6.44v7.46c-.05,3.51,2.76,6.39,6.26,6.43,3.51.05,6.39-2.76,6.43-6.26,0-.06,0-.11,0-.17v-7.46c.05-3.51-2.75-6.39-6.26-6.44-.06,0-.13,0-.19,0Z"/>
          <path id="path48" class="cls-3" d="M42.77,41.05c0,1.92-.01,7.29-.01,7.29,0,0-5.36.02-7.56.02-4.18,0-7.57-3.27-7.57-7.31s3.39-7.31,7.57-7.31,7.57,3.27,7.57,7.31h0Z"/>
        </g>
      </g>
    </g>
  </g>
</svg>