<?xml version="1.0" encoding="UTF-8"?>
<svg id="Calque_1" xmlns="http://www.w3.org/2000/svg" version="1.1" viewBox="0 0 112.5 110.3">
  <!-- Generator: Adobe Illustrator 30.0.0, SVG Export Plug-In . SVG Version: 2.1.1 Build 123)  -->
  <defs>
    <style>
      .st0 {
        fill: #26282b;
      }

      .st1 {
        fill: #f7b337;
      }
    </style>
  </defs>
  <g id="Calque_2">
    <rect class="st1" width="112.5" height="110.3"/>
  </g>
  <path class="st1" d="M56.8,38.5c-9,0-17.6,6.1-17.6,17.5s8.6,17.9,17.6,17.9,17.7-6.3,17.7-17.7-8.5-17.7-17.7-17.7h0Z"/>
  <path class="st0" d="M44.4,48.1c-2.7,6,0,13,5.8,15.5,6,2.6,13-.2,15.7-6.2,2.7-6,0-13-5.8-15.5-6-2.6-13,.2-15.7,6.1"/>
  <path class="st1" d="M44,45.6c-1.8,3.9,0,8.5,3.8,10.2,3.9,1.7,8.5,0,10.3-4,1.8-3.9,0-8.5-3.8-10.2-3.9-1.7-8.5,0-10.3,4Z"/>
  <path class="st0" d="M70.6,34.7c-4.1-2.9-9-4.5-14.4-4.5s-5.5.4-8,1.3c0,0,0,0,0,0-2.4.8-4.6,2-6.6,3.4,0,0-.2,0-.2.2-6.1,4.5-10,11.8-10,20s4.4,16.3,11.1,20.8c0,0,.1,0,.2.2,1.9,1.2,4,2.2,6.2,2.9.2,0,.4.1.6.2,2.2.6,4.5.9,6.8.9,5.3,0,10.3-1.7,14.4-4.5,6.4-4.5,10.6-12,10.6-20.5s-4.2-15.9-10.6-20.5ZM70.9,61.3c-3.6,7.9-12.8,11.5-20.6,8-7.8-3.4-11.2-12.5-7.7-20.3,3.6-7.8,12.8-11.5,20.6-8,7.8,3.4,11.2,12.5,7.7,20.3Z"/>
</svg>