<?xml version="1.0" encoding="UTF-8"?>
<svg xmlns="http://www.w3.org/2000/svg" viewBox="0 0 1200 1288.01">
  <defs>
    <style>
      .cls-1 {
        fill: #377a79;
        fill-rule: evenodd;
      }

      .cls-2 {
        isolation: isolate;
      }

      .cls-3 {
        font-family: MuseoModerno-Bold, MuseoModerno;
        font-size: 1000px;
        font-weight: 700;
      }
    </style>
  </defs>
  <g id="Shape_1" data-name="Shape 1" class="cls-2">
    <g id="Shape_1-2" data-name="Shape 1">
      <path class="cls-1" d="M600,1192.5c-80.1,0-157.76-15.64-230.81-46.5-70.57-29.81-133.93-72.5-188.31-126.88-54.38-54.38-97.07-117.74-126.88-188.31-30.85-73.05-46.5-150.71-46.5-230.81s15.64-157.76,46.5-230.81c29.81-70.57,72.5-133.93,126.88-188.31s117.74-97.07,188.31-126.88c73.05-30.85,150.71-46.5,230.81-46.5s157.76,15.64,230.81,46.5c70.57,29.81,133.93,72.5,188.31,126.88,54.38,54.38,97.07,117.74,126.88,188.31,30.86,73.05,46.5,150.71,46.5,230.81s-15.64,157.76-46.5,230.81c-29.81,70.57-72.5,133.93-126.88,188.31-54.38,54.38-117.74,97.07-188.31,126.88-73.05,30.86-150.71,46.5-230.81,46.5Z"/>
      <path d="M600,15c79.1,0,155.77,15.45,227.89,45.91,34.67,14.64,68.1,32.77,99.37,53.88,30.97,20.91,60.1,44.93,86.56,71.39,26.46,26.46,50.48,55.58,71.39,86.56,21.11,31.27,39.24,64.7,53.88,99.37,30.46,72.12,45.91,148.8,45.91,227.89s-15.45,155.77-45.91,227.89c-14.64,34.67-32.77,68.1-53.88,99.37-20.91,30.97-44.93,60.1-71.39,86.56-26.46,26.46-55.58,50.48-86.56,71.39-31.27,21.11-64.7,39.24-99.37,53.88-72.12,30.46-148.8,45.91-227.89,45.91s-155.77-15.45-227.89-45.91c-34.67-14.64-68.1-32.77-99.37-53.88-30.97-20.91-60.1-44.93-86.56-71.39-26.46-26.46-50.48-55.58-71.39-86.56-21.11-31.27-39.24-64.7-53.88-99.37-30.46-72.12-45.91-148.8-45.91-227.89s15.45-155.77,45.91-227.89c14.64-34.67,32.77-68.1,53.88-99.37,20.91-30.97,44.93-60.1,71.39-86.56s55.58-50.48,86.56-71.39c31.27-21.11,64.7-39.24,99.37-53.88,72.12-30.46,148.8-45.91,227.89-45.91M600,0C268.2,0,0,268.2,0,600s268.2,600,600,600,600-268.2,600-600S931.8,0,600,0h0Z"/>
    </g>
  </g>
  <g id="cv">
    <text class="cls-3" transform="translate(99.95 862.02)"><tspan x="0" y="0">cv</tspan></text>
  </g>
</svg>