<svg xmlns="http://www.w3.org/2000/svg" width="20" height="20" viewBox="0 0 20 20">
  <path id="Icon_simple-netlify" data-name="Icon simple-netlify" d="M14.113,7.151a.87.87,0,0,1,.253.192l1.958-.874L14.5,4.654l-.409,2.47ZM10.051,5.5a1.094,1.094,0,0,1,.174.48L13.139,7.22a.869.869,0,0,1,.3-.148L13.914,4.1,12.139,2.236,10.051,5.457ZM20,10.092,16.872,6.958l-2.124.873,5.22,2.226S20.013,10.092,20,10.092Zm-.523.507L14.462,8.451a.869.869,0,0,1-.583.34L13.339,12.1a.874.874,0,0,1,.253.611l3.028.637L19.4,10.581v-.052ZM12.834,7.762,10.111,6.6a1,1,0,0,1-.87.454H9.075L6.821,10.546l6.021-2.619v.008a.744.744,0,0,1,0-.14.044.044,0,0,0-.008-.034Zm3.306,6.111-2.663-.55a.914.914,0,0,1-.383.288l-.634,3.947,3.7-3.676s-.008.017-.017.017ZM12.416,13.6a.872.872,0,0,1-.513-.594L6.944,11.986l-.07.114,4.5,6.531.269-.271.766-4.741s.026.018.008.009ZM7.048,11.384l4.9,1.013a.87.87,0,0,1,.687-.436L13.164,8.7l-.113-.1L6.961,11.227a1.521,1.521,0,0,1,.087.157Zm-2.054.82-.1-.1-2.114.873L3.8,13.995l1.166-1.816Zm1.392.332a1.137,1.137,0,0,1-.469.1,1.154,1.154,0,0,1-.375-.061L4.255,14.457l5.638,5.6.992-.987Zm-.792-2.208a1.413,1.413,0,0,1,.262,0,1.145,1.145,0,0,1,.287,0L8.422,6.774a1,1,0,0,1-.278-.689,1.042,1.042,0,0,1,0-.227L5.377,4.575,3.15,6.749Zm.253-6.189,2.7,1.152a1.033,1.033,0,0,1,.7-.236,1.127,1.127,0,0,1,.331.053l2.105-3.3L9.937.062,5.847,4.086s-.008.043,0,.053ZM4.839,10.965a1.309,1.309,0,0,1,.2-.279L2.732,7.229,0,9.892l4.837,1.074Zm-.218.585L.444,10.676,2.28,12.545l2.314-.987Z" transform="translate(0 -0.062)"/>
</svg>
