<svg xmlns="http://www.w3.org/2000/svg" width="36.923" height="36" viewBox="0 0 36.923 36">
  <path id="Icon_simple-adobexd" data-name="Icon simple-adobexd" d="M30.385.45H6.538A6.533,6.533,0,0,0,0,6.988V29.912A6.533,6.533,0,0,0,6.538,36.45H30.385a6.533,6.533,0,0,0,6.538-6.538V6.988A6.533,6.533,0,0,0,30.385.45Zm4.985,28.862a5.574,5.574,0,0,1-5.569,5.6H7.123a5.594,5.594,0,0,1-5.585-5.585V7.573A5.594,5.594,0,0,1,7.123,1.988H29.785a5.585,5.585,0,0,1,5.585,5.585ZM14.6,17.3l4.308,8.277c.077.123.031.246-.092.246H16.138a.3.3,0,0,1-.323-.2c-.985-2.031-1.985-4.062-3.015-6.246h-.031c-.923,2.062-1.938,4.231-2.923,6.262a.3.3,0,0,1-.277.169H7.031c-.154,0-.169-.123-.092-.215l4.215-8.031L7.077,9.435a.124.124,0,0,1,.092-.215H9.815a.242.242,0,0,1,.277.169c.969,2.031,1.954,4.123,2.877,6.169H13c.892-2.031,1.877-4.138,2.831-6.154.077-.123.123-.2.277-.2h2.477c.123,0,.169.092.092.215ZM19.662,19.8c0-3.585,2.385-6.385,6.169-6.385a6.822,6.822,0,0,1,.8.031V9.373a.154.154,0,0,1,.154-.154h2.431c.123,0,.154.046.154.123V23.465a10.958,10.958,0,0,0,.077,1.508c0,.092-.031.123-.123.169a9.164,9.164,0,0,1-3.938.892C22.046,26.05,19.662,23.988,19.662,19.8Zm6.969-3.938a2.327,2.327,0,0,0-.892-.154c-1.938,0-3.292,1.492-3.292,3.969,0,2.831,1.385,3.969,3.123,3.969a2.9,2.9,0,0,0,1.062-.169V15.865Z" transform="translate(0 -0.45)"/>
</svg>
